<?xml version="1.0" encoding="utf-8"?>
<!-- Generator: Adobe Illustrator 16.0.3, SVG Export Plug-In . SVG Version: 6.00 Build 0)  -->
<!DOCTYPE svg PUBLIC "-//W3C//DTD SVG 1.1//EN" "http://www.w3.org/Graphics/SVG/1.1/DTD/svg11.dtd">
<svg version="1.1" id="Layer_1" xmlns="http://www.w3.org/2000/svg" xmlns:xlink="http://www.w3.org/1999/xlink" x="0px" y="0px"
	 width="24px" height="24px" viewBox="0 0 24 24" enable-background="new 0 0 24 24" xml:space="preserve">
<g>
	<g enable-background="new    ">
		<path fill="#FFFFFF" d="M6.933,13.83c0-0.497,0.406-0.853,0.873-0.853s0.863,0.355,0.863,0.853c0,0.508-0.396,0.863-0.863,0.863
			S6.933,14.338,6.933,13.83z M7.115,15.413h1.37v4.324h-1.37V15.413z"/>
		<path fill="#FFFFFF" d="M10.354,15.576H9.339v-1.137h2.405v5.298h-1.391V15.576z"/>
		<path fill="#FFFFFF" d="M12.789,17.819c0-0.833,0.498-1.37,1.198-1.635c-0.396-0.223-0.721-0.578-0.721-1.146
			c0-0.762,0.69-1.573,1.918-1.573c1.238,0,1.898,0.812,1.898,1.573c0,0.568-0.314,0.924-0.711,1.146
			c0.7,0.265,1.188,0.802,1.188,1.635c0,1.188-0.984,2.02-2.385,2.02C13.794,19.839,12.789,19.007,12.789,17.819z M16.118,17.707
			c0-0.518-0.354-0.954-0.943-0.954s-0.944,0.437-0.944,0.954s0.355,0.914,0.944,0.914S16.118,18.225,16.118,17.707z M15.733,15.14
			c0-0.335-0.234-0.548-0.549-0.548s-0.568,0.213-0.568,0.548c0,0.324,0.254,0.548,0.568,0.548S15.733,15.464,15.733,15.14z"/>
		<path fill="#FFFFFF" d="M18.453,15.413h1.37l-0.03,0.711c0.264-0.518,0.771-0.802,1.37-0.802c0.944,0,1.624,0.69,1.624,1.918
			v2.497h-1.37v-2.405c0-0.487-0.233-0.762-0.721-0.762c-0.548,0-0.873,0.305-0.873,0.853v2.314h-1.37V15.413z"/>
		<path fill="#FFFFFF" d="M14,10H2v2h12V10z M14,6H2v2h12V6z M2,16h4v-2H2V16z"/>
	</g>
</g>
</svg>
